<svg width="40" height="30" viewBox="0 0 40 30" fill="none" xmlns="http://www.w3.org/2000/svg">
<path d="M0 5C0 3.67392 0.526784 2.40215 1.46447 1.46447C2.40215 0.526784 3.67392 0 5 0H35C36.3261 0 37.5979 0.526784 38.5355 1.46447C39.4732 2.40215 40 3.67392 40 5V25C40 26.3261 39.4732 27.5979 38.5355 28.5355C37.5979 29.4732 36.3261 30 35 30H5C3.67392 30 2.40215 29.4732 1.46447 28.5355C0.526784 27.5979 0 26.3261 0 25V5ZM5 2.5C4.33696 2.5 3.70107 2.76339 3.23223 3.23223C2.76339 3.70107 2.5 4.33696 2.5 5V5.5425L20 16.0425L37.5 5.5425V5C37.5 4.33696 37.2366 3.70107 36.7678 3.23223C36.2989 2.76339 35.663 2.5 35 2.5H5ZM37.5 8.4575L25.73 15.52L37.5 22.7625V8.4575ZM37.415 25.6475L23.315 16.97L20 18.9575L16.685 16.97L2.585 25.645C2.72706 26.177 3.04079 26.6472 3.47747 26.9826C3.91416 27.3181 4.44936 27.4999 5 27.5H35C35.5503 27.5001 36.0853 27.3186 36.5219 26.9836C36.9585 26.6487 37.2725 26.179 37.415 25.6475ZM2.5 22.7625L14.27 15.52L2.5 8.4575V22.7625Z" fill="#A95D42"/>
</svg>
