<svg width="506" height="80" viewBox="0 0 506 80" fill="none" xmlns="http://www.w3.org/2000/svg">
<path d="M3.552 58.272C4.128 49.44 4.416 40.128 4.416 30.336C4.416 20.544 4.128 13.024 3.552 7.776L0.288 7.488C0.16 6.464 0.0959995 5.6 0.0959995 4.896C0.0959995 4.128 0.192 3.2 0.384 2.112C2.624 2.176 5.216 2.208 8.16 2.208C11.104 2.208 13.664 2.176 15.84 2.112C16.032 3.072 16.128 3.936 16.128 4.704C16.128 5.408 16.064 6.336 15.936 7.488L12.288 7.776C11.84 13.792 11.616 22.08 11.616 32.64C11.616 43.136 11.84 51.104 12.288 56.544C14.272 56.736 17.152 56.832 20.928 56.832C24.768 56.832 27.68 56.672 29.664 56.352L29.952 49.824C31.04 49.632 32 49.536 32.832 49.536C33.728 49.536 34.56 49.568 35.328 49.632C35.52 54.496 35.808 59.232 36.192 63.84L35.712 64.32C32.704 64 26.592 63.84 17.376 63.84C8.16 63.84 2.464 63.872 0.288 63.936C0.096 62.976 0 62.144 0 61.44C0 60.672 0.0639999 59.712 0.192 58.56L3.552 58.272Z" fill="black"/>
<path d="M40.6425 41.088C40.6425 25.664 46.6585 17.952 58.6905 17.952C70.7225 17.952 76.7385 25.664 76.7385 41.088C76.7385 48.192 75.6185 53.824 73.3785 57.984C70.8185 62.848 65.9225 65.28 58.6905 65.28C51.4585 65.28 46.5625 62.848 44.0025 57.984C41.7625 53.824 40.6425 48.192 40.6425 41.088ZM48.5145 40.896C48.5145 52.544 51.9065 58.368 58.6905 58.368C65.4745 58.368 68.8665 52.544 68.8665 40.896C68.8665 29.184 65.4745 23.328 58.6905 23.328C51.9065 23.328 48.5145 29.184 48.5145 40.896Z" fill="black"/>
<path d="M88.9132 51.456L89.0092 41.184C89.0092 35.488 88.7532 30.016 88.2412 24.768L84.6892 24.48C84.4972 23.456 84.4013 22.4 84.4013 21.312C84.4013 20.224 84.4333 19.488 84.4973 19.104C87.7613 19.04 91.7293 18.752 96.4013 18.24L96.8812 18.72C96.3052 22.496 96.0173 29.248 96.0173 38.976V43.488C96.0173 48.864 96.4973 52.704 97.4573 55.008C98.4813 57.248 100.177 58.368 102.545 58.368C105.873 58.368 109.489 56.416 113.393 52.512C113.521 51.04 113.585 48.192 113.585 43.968V41.184C113.585 35.488 113.329 30.016 112.817 24.768L109.265 24.48C109.073 23.392 108.977 22.336 108.977 21.312C108.977 20.224 109.009 19.488 109.073 19.104C112.337 19.04 116.305 18.752 120.977 18.24L121.457 18.72C120.881 22.496 120.593 29.248 120.593 38.976V42.048C120.593 47.296 120.881 52.416 121.457 57.408L125.009 57.6C125.137 59.008 125.201 60.064 125.201 60.768C125.201 61.408 125.105 62.208 124.913 63.168C122.417 63.296 118.929 63.616 114.449 64.128C113.937 62.976 113.553 61.376 113.297 59.328C108.497 63.296 104.081 65.28 100.049 65.28C96.0172 65.28 93.1372 64.16 91.4092 61.92C89.7452 59.68 88.9132 56.192 88.9132 51.456Z" fill="black"/>
<path d="M137.965 58.272C138.541 52 138.829 46.272 138.829 41.088C138.829 35.84 138.573 30.4 138.061 24.768L134.509 24.48C134.317 23.392 134.221 22.368 134.221 21.408C134.221 20.384 134.253 19.616 134.317 19.104C138.029 18.976 141.997 18.688 146.221 18.24L146.701 18.72C146.125 22.496 145.837 28.832 145.837 37.728C145.837 46.624 146.125 53.472 146.701 58.272L150.253 58.56C150.381 59.584 150.445 60.48 150.445 61.248C150.445 61.952 150.349 62.848 150.157 63.936C147.917 63.872 145.325 63.84 142.381 63.84C139.437 63.84 136.877 63.872 134.701 63.936C134.509 62.976 134.413 61.984 134.413 60.96C134.413 59.936 134.477 59.136 134.605 58.56L137.965 58.272ZM147.661 4.992C147.661 8.96 145.613 10.944 141.517 10.944C138.317 10.944 136.717 9.312 136.717 6.048C136.717 2.016 138.765 0 142.861 0C146.061 0 147.661 1.664 147.661 4.992Z" fill="black"/>
<path d="M173.743 17.952C178.224 17.952 181.776 19.008 184.4 21.12C187.088 23.232 188.432 25.984 188.432 29.376C188.432 32.704 186.927 34.368 183.919 34.368C182.127 34.368 180.719 33.824 179.695 32.736C178.735 31.584 178.255 30.24 178.255 28.704C178.255 27.168 178.511 25.888 179.023 24.864C177.487 23.648 175.663 23.04 173.551 23.04C171.439 23.04 169.679 23.552 168.271 24.576C166.927 25.6 166.255 27.104 166.255 29.088C166.255 31.072 167.023 32.8 168.559 34.272C170.159 35.744 172.08 36.96 174.32 37.92C176.56 38.816 178.8 39.776 181.04 40.8C183.28 41.76 185.168 43.168 186.704 45.024C188.304 46.816 189.104 49.056 189.104 51.744C189.104 55.904 187.696 59.2 184.88 61.632C182.128 64.064 178.351 65.28 173.551 65.28C168.751 65.28 164.815 64.256 161.743 62.208C158.735 60.16 157.232 57.472 157.232 54.144V53.76C157.232 50.304 158.735 48.576 161.743 48.576C163.535 48.576 164.912 49.152 165.872 50.304C166.896 51.392 167.408 52.672 167.408 54.144C167.408 55.616 167.248 56.768 166.928 57.6C168.208 58.432 170.223 58.848 172.975 58.848C175.791 58.848 177.903 58.368 179.311 57.408C180.783 56.448 181.52 55.136 181.52 53.472C181.52 51.744 180.72 50.208 179.12 48.864C177.584 47.52 175.696 46.4 173.456 45.504C171.216 44.544 168.976 43.552 166.736 42.528C164.496 41.44 162.575 39.904 160.975 37.92C159.439 35.936 158.671 33.568 158.671 30.816C158.671 26.848 160.047 23.712 162.799 21.408C165.615 19.104 169.264 17.952 173.743 17.952Z" fill="black"/>
<path d="M214.094 42.528C210.958 42.528 208.046 42.368 205.358 42.048C205.486 52.928 209.102 58.368 216.206 58.368C219.79 58.368 223.758 56.384 228.11 52.416C229.966 54.336 231.15 56.864 231.662 60C226.414 63.52 220.846 65.28 214.958 65.28C209.07 65.28 204.686 63.264 201.806 59.232C198.926 55.136 197.486 49.152 197.486 41.28C197.486 33.408 199.086 27.552 202.286 23.712C205.55 19.872 210.158 17.952 216.11 17.952C220.526 17.952 224.174 19.296 227.054 21.984C229.934 24.672 231.374 27.968 231.374 31.872C231.438 35.776 231.118 38.56 230.414 40.224C225.614 41.76 220.174 42.528 214.094 42.528ZM215.438 23.328C209.486 23.328 206.158 27.712 205.454 36.48C208.334 36.8 211.502 36.96 214.958 36.96C218.414 36.96 221.102 36.64 223.022 36C223.278 34.4 223.406 33.216 223.406 32.448C223.406 29.632 222.67 27.424 221.198 25.824C219.79 24.16 217.87 23.328 215.438 23.328Z" fill="black"/>
<path d="M284.959 58.944C279.263 63.168 272.543 65.28 264.799 65.28C257.055 65.28 251.263 62.656 247.423 57.408C243.647 52.16 241.759 44.128 241.759 33.312C241.759 11.744 249.791 0.959999 265.855 0.959999C270.335 0.959999 274.143 1.856 277.279 3.648C280.415 5.376 282.655 7.872 283.999 11.136C284.383 12.288 284.575 13.536 284.575 14.88C284.575 18.72 282.911 20.64 279.583 20.64C277.599 20.64 276.063 20.032 274.975 18.816C273.887 17.6 273.343 16.032 273.343 14.112C273.343 12.192 273.727 10.688 274.495 9.6C272.447 7.616 269.567 6.624 265.855 6.624C260.543 6.624 256.511 8.832 253.759 13.248C251.007 17.6 249.631 24.032 249.631 32.544C249.631 49.632 254.943 58.176 265.567 58.176C270.751 58.176 275.135 56.704 278.719 53.76C278.655 48.64 278.431 44.256 278.047 40.608C270.367 40.864 265.215 41.216 262.591 41.664C262.271 39.936 262.111 38.272 262.111 36.672C262.111 35.072 262.143 33.984 262.207 33.408C265.471 33.92 269.567 34.176 274.495 34.176C279.423 34.176 283.231 34.08 285.919 33.888C285.279 40.672 284.959 49.024 284.959 58.944Z" fill="black"/>
<path d="M295.549 41.088C295.549 25.664 301.565 17.952 313.597 17.952C325.629 17.952 331.645 25.664 331.645 41.088C331.645 48.192 330.525 53.824 328.285 57.984C325.725 62.848 320.829 65.28 313.597 65.28C306.365 65.28 301.469 62.848 298.909 57.984C296.669 53.824 295.549 48.192 295.549 41.088ZM303.421 40.896C303.421 52.544 306.813 58.368 313.597 58.368C320.381 58.368 323.773 52.544 323.773 40.896C323.773 29.184 320.381 23.328 313.597 23.328C306.813 23.328 303.421 29.184 303.421 40.896Z" fill="black"/>
<path d="M400.46 31.68L400.363 39.552C400.363 46.272 400.748 52.512 401.516 58.272L404.971 58.56C405.099 59.136 405.164 59.904 405.164 60.864C405.164 61.824 405.068 62.848 404.876 63.936C403.084 63.872 400.395 63.84 396.811 63.84C393.227 63.84 390.667 63.872 389.132 63.936C388.939 62.976 388.844 62.08 388.844 61.248C388.844 60.352 388.907 59.456 389.035 58.56L392.299 58.272C392.812 50.784 393.068 44.384 393.068 39.072C393.068 33.696 392.588 29.856 391.628 27.552C390.667 25.248 389.068 24.096 386.828 24.096C383.628 24.096 380.204 26.208 376.556 30.432L376.46 39.552C376.46 46.272 376.844 52.512 377.612 58.272L380.971 58.56C381.099 59.584 381.164 60.48 381.164 61.248C381.164 61.952 381.067 62.848 380.875 63.936C379.083 63.872 376.395 63.84 372.811 63.84C369.227 63.84 366.667 63.872 365.132 63.936C364.94 62.976 364.844 62.08 364.844 61.248C364.844 60.352 364.907 59.456 365.035 58.56L368.396 58.272C368.908 50.784 369.164 44.384 369.164 39.072C369.164 33.696 368.684 29.856 367.724 27.552C366.764 25.248 365.163 24.096 362.923 24.096C359.659 24.096 356.235 26.176 352.651 30.336C352.587 32 352.556 35.904 352.556 42.048C352.556 48.128 352.843 53.536 353.419 58.272L356.971 58.56C357.099 59.968 357.164 60.96 357.164 61.536C357.164 62.048 357.067 62.848 356.875 63.936C355.083 63.872 352.46 63.84 349.004 63.84C345.548 63.84 343.019 63.872 341.419 63.936C341.227 62.976 341.132 62.08 341.132 61.248C341.132 60.352 341.195 59.456 341.323 58.56L344.684 58.272C345.26 51.872 345.547 46.016 345.547 40.704C345.547 35.328 345.292 30.016 344.78 24.768L341.228 24.48C341.036 23.392 340.94 22.336 340.94 21.312C340.94 20.224 340.971 19.488 341.035 19.104C344.299 19.04 348.268 18.752 352.94 18.24L353.419 18.72C353.227 20.064 353.036 21.952 352.844 24.384C354.7 22.464 356.844 20.928 359.276 19.776C361.708 18.56 363.979 17.952 366.091 17.952C371.339 17.952 374.635 20.416 375.979 25.344C377.835 23.168 380.044 21.408 382.604 20.064C385.228 18.656 387.692 17.952 389.996 17.952C393.58 17.952 396.203 19.072 397.867 21.312C399.595 23.488 400.46 26.944 400.46 31.68Z" fill="black"/>
<path d="M430.094 42.528C426.958 42.528 424.046 42.368 421.358 42.048C421.486 52.928 425.102 58.368 432.206 58.368C435.79 58.368 439.758 56.384 444.11 52.416C445.966 54.336 447.15 56.864 447.662 60C442.414 63.52 436.846 65.28 430.958 65.28C425.07 65.28 420.686 63.264 417.806 59.232C414.926 55.136 413.486 49.152 413.486 41.28C413.486 33.408 415.086 27.552 418.286 23.712C421.55 19.872 426.158 17.952 432.11 17.952C436.526 17.952 440.174 19.296 443.054 21.984C445.934 24.672 447.374 27.968 447.374 31.872C447.438 35.776 447.118 38.56 446.414 40.224C441.614 41.76 436.174 42.528 430.094 42.528ZM431.438 23.328C425.486 23.328 422.158 27.712 421.454 36.48C424.334 36.8 427.502 36.96 430.958 36.96C434.414 36.96 437.102 36.64 439.022 36C439.278 34.4 439.406 33.216 439.406 32.448C439.406 29.632 438.67 27.424 437.198 25.824C435.79 24.16 433.87 23.328 431.438 23.328Z" fill="black"/>
<path d="M471.775 17.952C476.255 17.952 479.807 19.008 482.431 21.12C485.119 23.232 486.463 25.984 486.463 29.376C486.463 32.704 484.959 34.368 481.951 34.368C480.159 34.368 478.751 33.824 477.727 32.736C476.767 31.584 476.287 30.24 476.287 28.704C476.287 27.168 476.543 25.888 477.055 24.864C475.519 23.648 473.695 23.04 471.583 23.04C469.471 23.04 467.711 23.552 466.303 24.576C464.959 25.6 464.287 27.104 464.287 29.088C464.287 31.072 465.055 32.8 466.591 34.272C468.191 35.744 470.111 36.96 472.351 37.92C474.591 38.816 476.831 39.776 479.071 40.8C481.311 41.76 483.199 43.168 484.735 45.024C486.335 46.816 487.135 49.056 487.135 51.744C487.135 55.904 485.727 59.2 482.911 61.632C480.159 64.064 476.383 65.28 471.583 65.28C466.783 65.28 462.847 64.256 459.775 62.208C456.767 60.16 455.263 57.472 455.263 54.144V53.76C455.263 50.304 456.767 48.576 459.775 48.576C461.567 48.576 462.943 49.152 463.903 50.304C464.927 51.392 465.439 52.672 465.439 54.144C465.439 55.616 465.279 56.768 464.959 57.6C466.239 58.432 468.255 58.848 471.007 58.848C473.823 58.848 475.935 58.368 477.343 57.408C478.815 56.448 479.551 55.136 479.551 53.472C479.551 51.744 478.751 50.208 477.151 48.864C475.615 47.52 473.727 46.4 471.487 45.504C469.247 44.544 467.007 43.552 464.767 42.528C462.527 41.44 460.607 39.904 459.007 37.92C457.471 35.936 456.703 33.568 456.703 30.816C456.703 26.848 458.079 23.712 460.831 21.408C463.647 19.104 467.295 17.952 471.775 17.952Z" fill="black"/>
<path d="M265.76 75.84C265.76 73.6309 267.551 71.84 269.76 71.84H501.76C503.969 71.84 505.76 73.6309 505.76 75.84C505.76 78.0491 503.969 79.84 501.76 79.84H269.76C267.551 79.84 265.76 78.0491 265.76 75.84Z" fill="url(#paint0_linear_9_268)"/>
<defs>
<linearGradient id="paint0_linear_9_268" x1="505.762" y1="75.8399" x2="265.762" y2="75.8398" gradientUnits="userSpaceOnUse">
<stop stop-color="#A95D42"/>
<stop offset="1" stop-color="#A95D42" stop-opacity="0.5"/>
</linearGradient>
</defs>
</svg>
