<svg width="33" height="32" viewBox="0 0 33 32" fill="none" xmlns="http://www.w3.org/2000/svg">
<g clip-path="url(#clip0_13_14)">
<path d="M27.702 4.65211C26.2352 3.1711 24.4882 1.997 22.5629 1.1983C20.6375 0.399594 18.5724 -0.00772164 16.488 0.00011085C7.754 0.00011085 0.636 7.11611 0.628 15.8521C0.628 18.6501 1.36 21.3721 2.742 23.7821L0.5 32.0001L8.908 29.7961C11.233 31.0646 13.8395 31.7282 16.488 31.7261H16.496C25.232 31.7261 32.348 24.6101 32.356 15.8661C32.3578 13.7822 31.9473 11.7186 31.1482 9.794C30.3492 7.86941 29.1793 6.12191 27.702 4.65211ZM16.488 29.0421C14.1264 29.0403 11.8085 28.4048 9.776 27.2021L9.296 26.9141L4.308 28.2221L5.64 23.3561L5.328 22.8541C4.00761 20.7548 3.30929 18.3242 3.314 15.8441C3.314 8.59211 9.228 2.67611 16.496 2.67611C18.2275 2.673 19.9425 3.01266 21.542 3.67549C23.1416 4.33833 24.5942 5.31123 25.816 6.53811C27.0418 7.76041 28.0136 9.2132 28.6754 10.8128C29.3372 12.4123 29.6759 14.127 29.672 15.8581C29.664 23.1361 23.75 29.0421 16.488 29.0421ZM23.718 19.1741C23.324 18.9761 21.378 18.0181 21.012 17.8821C20.648 17.7521 20.382 17.6841 20.122 18.0801C19.856 18.4741 19.096 19.3721 18.868 19.6301C18.64 19.8961 18.404 19.9261 18.008 19.7301C17.614 19.5301 16.336 19.1141 14.824 17.7601C13.644 16.7101 12.854 15.4101 12.618 15.0161C12.39 14.6201 12.596 14.4081 12.794 14.2101C12.968 14.0341 13.188 13.7461 13.386 13.5181C13.586 13.2901 13.652 13.1221 13.782 12.8581C13.912 12.5901 13.85 12.3621 13.752 12.1641C13.652 11.9661 12.862 10.0121 12.528 9.22411C12.208 8.44611 11.882 8.55411 11.638 8.54411C11.41 8.53011 11.144 8.53011 10.878 8.53011C10.6772 8.53522 10.4795 8.58174 10.2975 8.66674C10.1154 8.75174 9.95287 8.8734 9.82 9.02411C9.456 9.42011 8.438 10.3781 8.438 12.3321C8.438 14.2861 9.858 16.1641 10.058 16.4301C10.254 16.6961 12.846 20.6941 16.824 22.4141C17.764 22.8241 18.504 23.0661 19.082 23.2501C20.032 23.5541 20.89 23.5081 21.574 23.4101C22.334 23.2941 23.916 22.4501 24.25 21.5241C24.578 20.5961 24.578 19.8041 24.478 19.6381C24.38 19.4701 24.114 19.3721 23.718 19.1741Z" fill="white"/>
</g>
<defs>
<clipPath id="clip0_13_14">
<rect width="32" height="32" fill="white" transform="translate(0.5)"/>
</clipPath>
</defs>
</svg>
